<?xml version="1.0" standalone="no"?>
<!DOCTYPE svg PUBLIC "-//W3C//DTD SVG 20010904//EN"
 "http://www.w3.org/TR/2001/REC-SVG-20010904/DTD/svg10.dtd">
<svg version="1.0" xmlns="http://www.w3.org/2000/svg"
 width="1338.000000pt" height="612.000000pt" viewBox="0 0 1338.000000 612.000000"
 preserveAspectRatio="xMidYMid meet">

<g transform="translate(0.000000,612.000000) scale(0.100000,-0.100000)"
fill="#000000" stroke="none">
<path d="M7880 4080 c-19 -19 -20 -33 -20 -227 0 -115 -3 -224 -6 -244 l-6
-36 -42 23 c-168 93 -374 94 -563 3 -141 -68 -255 -202 -303 -358 l-17 -54
-22 64 c-61 182 -199 321 -386 385 -69 24 -96 28 -190 28 -94 0 -121 -4 -190
-28 -70 -24 -205 -102 -220 -126 -3 -5 -30 10 -59 34 -109 88 -243 131 -386
123 -102 -6 -165 -24 -244 -72 -32 -19 -60 -35 -62 -35 -2 0 -4 11 -4 25 0 50
-30 65 -132 65 -51 0 -98 -4 -104 -8 -30 -19 -34 -56 -35 -279 l0 -228 -19 71
c-46 177 -157 317 -315 396 -252 128 -562 62 -746 -159 -54 -65 -107 -175
-122 -251 -12 -64 -27 -83 -27 -34 0 15 -11 57 -23 93 -62 182 -200 319 -389
386 -100 36 -259 38 -363 6 -249 -78 -417 -294 -432 -553 -6 -116 12 -202 65
-310 45 -93 158 -210 247 -257 337 -178 759 -13 870 339 14 44 25 88 25 99 0
10 5 19 10 19 6 0 10 -9 10 -21 0 -43 53 -176 96 -241 172 -259 518 -343 799
-195 89 47 202 164 247 257 21 41 44 102 52 135 14 58 14 52 15 -178 l1 -238
25 -24 c22 -23 32 -25 115 -25 123 0 130 7 131 138 1 53 4 205 7 337 7 236 7
241 35 297 32 64 75 106 150 145 45 23 64 27 142 28 78 0 97 -4 145 -27 31
-15 68 -41 84 -57 l28 -29 -18 -69 c-21 -81 -24 -216 -5 -293 49 -203 198
-368 391 -437 108 -38 281 -44 401 -14 101 25 187 67 252 123 41 34 48 45 45
72 -3 27 -13 36 -93 82 -49 29 -99 53 -110 53 -11 1 -53 -16 -94 -36 -71 -37
-78 -38 -175 -38 -109 1 -160 16 -231 70 -36 28 -95 109 -95 132 0 11 82 13
449 13 l449 0 27 -79 c82 -246 314 -410 580 -411 160 0 305 60 421 175 96 95
145 188 180 340 6 27 8 23 20 -35 18 -84 81 -212 138 -276 61 -69 166 -139
256 -171 99 -34 246 -43 340 -19 231 58 405 235 456 463 l17 78 14 -70 c42
-209 198 -385 403 -455 89 -31 242 -38 330 -16 180 45 332 167 408 326 48 101
62 163 62 273 0 287 -203 533 -490 593 -132 28 -296 1 -418 -68 -71 -40 -162
-126 -208 -195 -42 -64 -93 -200 -95 -253 -1 -28 -5 -19 -19 40 -25 100 -52
161 -106 237 -135 189 -377 284 -605 239 -131 -27 -219 -74 -315 -170 -89 -89
-132 -164 -164 -283 l-19 -68 0 461 -1 461 -23 21 c-20 19 -35 22 -115 22 -79
0 -95 -3 -112 -20z m-4672 -724 c64 -33 123 -91 154 -154 19 -40 23 -63 23
-147 0 -92 -2 -104 -29 -153 -108 -195 -359 -237 -525 -87 -22 20 -55 65 -72
100 -26 52 -30 74 -30 136 0 139 61 242 181 304 58 30 82 35 165 31 63 -2 91
-8 133 -30z m1220 0 c255 -130 246 -483 -17 -604 -44 -21 -72 -26 -131 -27
-66 0 -85 5 -142 33 -123 61 -188 166 -188 305 0 88 30 160 93 225 74 77 140
103 252 98 63 -2 91 -8 133 -30z m2016 14 c64 -25 132 -82 164 -139 l23 -41
-305 0 c-168 0 -306 4 -306 8 0 15 56 87 90 115 35 30 81 56 120 68 51 15 158
10 214 -11z m1183 4 c154 -52 253 -217 223 -374 -40 -213 -272 -336 -465 -247
-77 36 -147 110 -175 185 -29 75 -25 196 9 260 42 82 116 148 200 178 50 18
151 17 208 -2z m1258 -14 c163 -79 234 -273 161 -436 -55 -123 -171 -198 -306
-199 -66 0 -85 5 -143 33 -72 36 -123 87 -159 161 -19 38 -23 62 -23 141 0 80
4 102 24 140 43 82 125 153 211 181 50 17 182 5 235 -21z m1216 2 c74 -36 125
-87 161 -160 29 -59 33 -76 33 -147 -1 -103 -32 -172 -110 -244 -68 -62 -134
-86 -231 -85 -124 2 -229 69 -291 186 -24 47 -28 64 -28 143 0 71 5 100 21
136 39 83 115 153 203 186 56 20 186 13 242 -15z"/>
<path d="M10636 3968 c-82 -22 -156 -123 -156 -212 0 -84 67 -180 145 -206 49
-16 132 -9 181 16 49 26 101 100 110 160 23 153 -128 284 -280 242z"/>
</g>
</svg>
